<?xml version="1.0" standalone="no"?>
<!DOCTYPE svg PUBLIC "-//W3C//DTD SVG 20010904//EN"
 "http://www.w3.org/TR/2001/REC-SVG-20010904/DTD/svg10.dtd">
<svg version="1.0" xmlns="http://www.w3.org/2000/svg"
 width="64.000000pt" height="64.000000pt" viewBox="0 0 64.000000 64.000000"
 preserveAspectRatio="xMidYMid meet">

<g transform="translate(0.000000,64.000000) scale(0.100000,-0.100000)"
fill="#ffffff" stroke="none">
<path d="M10 569 c0 -44 3 -60 13 -57 6 3 13 17 15 32 3 23 6 25 18 15 11 -9
18 -9 26 -1 20 20 28 14 28 -19 0 -51 25 -28 28 26 4 62 -10 76 -43 45 l-25
-23 -23 21 c-13 12 -26 22 -30 22 -4 0 -7 -27 -7 -61z"/>
<path d="M200 554 c-20 -51 -5 -88 19 -46 7 11 10 13 11 3 0 -8 7 -11 20 -8
17 4 20 2 15 -14 -4 -13 -2 -19 9 -19 16 0 44 75 33 87 -4 3 -18 1 -32 -5 -21
-10 -26 -9 -35 8 -15 27 -29 25 -40 -6z"/>
<path d="M377 463 c-14 -13 -6 -23 17 -23 51 0 76 -17 76 -52 0 -28 10 -42 65
-91 65 -58 65 -59 65 -111 l0 -53 -127 -47 c-71 -25 -140 -46 -155 -46 -17 0
-44 16 -80 48 -84 76 -109 92 -140 92 -18 0 -38 9 -52 25 -28 30 -36 31 -36 6
0 -26 46 -61 81 -61 20 0 48 -17 96 -58 116 -100 116 -100 292 -37 135 49 161
68 161 120 0 55 -19 88 -80 140 -42 36 -58 55 -55 69 2 11 -1 28 -6 38 -17 32
-103 61 -122 41z"/>
<path d="M327 444 c-8 -8 1 -24 14 -24 5 0 9 7 9 15 0 15 -12 20 -23 9z"/>
<path d="M115 369 c-44 -17 -85 -35 -92 -41 -36 -29 6 -84 71 -95 28 -4 54
-19 86 -48 58 -55 118 -95 141 -95 19 0 226 74 237 84 3 4 1 10 -4 15 -5 5
-52 -7 -114 -30 -68 -25 -114 -37 -130 -33 -13 3 -57 34 -98 70 -51 45 -81 64
-100 64 -28 0 -72 24 -72 40 0 4 35 20 78 36 84 30 105 42 96 55 -7 12 -7 12
-99 -22z"/>
<path d="M257 366 c-49 -18 -77 -43 -77 -71 0 -34 20 -45 80 -45 47 0 63 -5
107 -35 61 -41 77 -43 97 -12 25 40 28 65 11 102 -33 69 -124 94 -218 61z"/>
<path d="M285 190 c-8 -13 20 -24 41 -16 20 8 9 26 -16 26 -10 0 -22 -5 -25
-10z"/>
</g>
</svg>
